<svg viewBox="0 0 26 26" fill="none" xmlns="http://www.w3.org/2000/svg">
<path fill-rule="evenodd" clip-rule="evenodd" d="M1.625 1C1.27982 1 1 1.27982 1 1.625V8C1 8.27614 0.776142 8.5 0.5 8.5C0.223858 8.5 0 8.27614 0 8V1.625C0 0.727537 0.727537 3.49691e-07 1.625 3.49691e-07H8C8.27614 3.49691e-07 8.5 0.223858 8.5 0.5C8.5 0.776143 8.27614 1 8 1H1.625Z" fill="#262626"/>
<path fill-rule="evenodd" clip-rule="evenodd" d="M24.75 25C24.8881 25 25 24.8881 25 24.75V18C25 17.7239 25.2239 17.5 25.5 17.5C25.7761 17.5 26 17.7239 26 18V24.75C26 25.4404 25.4404 26 24.75 26H18C17.7239 26 17.5 25.7761 17.5 25.5C17.5 25.2239 17.7239 25 18 25H24.75Z" fill="#262626"/>
<path fill-rule="evenodd" clip-rule="evenodd" d="M25 1.625C25 1.27982 24.7202 1 24.375 1L18 1C17.7239 1 17.5 0.776142 17.5 0.5C17.5 0.223858 17.7239 -1.20706e-08 18 0L24.375 2.7866e-07C25.2725 3.1789e-07 26 0.727538 26 1.625V8C26 8.27614 25.7761 8.5 25.5 8.5C25.2239 8.5 25 8.27614 25 8V1.625Z" fill="#262626"/>
<path fill-rule="evenodd" clip-rule="evenodd" d="M1 24.375C1 24.7202 1.27982 25 1.625 25L8 25C8.27614 25 8.5 25.2239 8.5 25.5C8.5 25.7761 8.27614 26 8 26L1.625 26C0.727537 26 9.5405e-08 25.2725 2.13093e-07 24.375L1.04907e-06 18C1.08529e-06 17.7239 0.223859 17.5 0.500001 17.5C0.776144 17.5 1 17.7239 1 18L1 24.375Z" fill="#262626"/>
<path fill-rule="evenodd" clip-rule="evenodd" d="M9.875 4H4.125C4.05596 4 4 4.05596 4 4.125V9.875C4 9.94404 4.05596 10 4.125 10H9.875C9.94404 10 10 9.94404 10 9.875V4.125C10 4.05596 9.94404 4 9.875 4ZM4.125 3C3.50368 3 3 3.50368 3 4.125V9.875C3 10.4963 3.50368 11 4.125 11H9.875C10.4963 11 11 10.4963 11 9.875V4.125C11 3.50368 10.4963 3 9.875 3H4.125Z" fill="#262626"/>
<path fill-rule="evenodd" clip-rule="evenodd" d="M9.875 16H4.125C4.05596 16 4 16.056 4 16.125V21.875C4 21.944 4.05596 22 4.125 22H9.875C9.94404 22 10 21.944 10 21.875V16.125C10 16.056 9.94404 16 9.875 16ZM4.125 15C3.50368 15 3 15.5037 3 16.125V21.875C3 22.4963 3.50368 23 4.125 23H9.875C10.4963 23 11 22.4963 11 21.875V16.125C11 15.5037 10.4963 15 9.875 15H4.125Z" fill="#262626"/>
<path d="M5 5.75C5 5.33579 5.33579 5 5.75 5H8.25C8.66421 5 9 5.33579 9 5.75V8.25C9 8.66421 8.66421 9 8.25 9H5.75C5.33579 9 5 8.66421 5 8.25V5.75Z" fill="#262626"/>
<path d="M5 17.75C5 17.3358 5.33579 17 5.75 17H8.25C8.66421 17 9 17.3358 9 17.75V20.25C9 20.6642 8.66421 21 8.25 21H5.75C5.33579 21 5 20.6642 5 20.25V17.75Z" fill="#262626"/>
<path d="M19 19.75C19 19.3358 19.3358 19 19.75 19H22.25C22.6642 19 23 19.3358 23 19.75V22.25C23 22.6642 22.6642 23 22.25 23H19.75C19.3358 23 19 22.6642 19 22.25V19.75Z" fill="#262626"/>
<path d="M17 5.75C17 5.33579 17.3358 5 17.75 5H20.25C20.6642 5 21 5.33579 21 5.75V8.25C21 8.66421 20.6642 9 20.25 9H17.75C17.3358 9 17 8.66421 17 8.25V5.75Z" fill="#262626"/>
<path fill-rule="evenodd" clip-rule="evenodd" d="M21.875 4H16.125C16.056 4 16 4.05596 16 4.125V9.875C16 9.94404 16.056 10 16.125 10H21.875C21.944 10 22 9.94404 22 9.875V4.125C22 4.05596 21.944 4 21.875 4ZM16.125 3C15.5037 3 15 3.50368 15 4.125V9.875C15 10.4963 15.5037 11 16.125 11H21.875C22.4963 11 23 10.4963 23 9.875V4.125C23 3.50368 22.4963 3 21.875 3H16.125Z" fill="#262626"/>
</svg>
