<svg viewBox="0 0 25 27" fill="none" xmlns="http://www.w3.org/2000/svg">
    <g clip-path="url(#clip0_1_2442)">
        <path d="M24.0902 19.5796C24.0902 19.929 23.8506 20.3483 23.5511 20.518L13.0091 26.6076C12.7096 26.7773 12.2205 26.7773 11.921 26.6076L1.37905 20.518C1.07956 20.3483 0.839973 19.919 0.839973 19.5796V7.40045C0.839973 7.06104 1.07956 6.63177 1.37905 6.46206L11.921 0.372491C12.2205 0.202781 12.7096 0.202781 13.0091 0.372491L23.5511 6.46206C23.8506 6.63177 24.0902 7.06104 24.0902 7.40045V19.5796Z" fill="white"/>
        <path d="M18.0305 13.51L15.2852 17.5431L13.8677 15.3768L15.4949 12.941C15.7944 12.5017 16.4433 11.3237 15.6945 9.68654C15.0856 8.3688 13.7778 7.72989 12.6298 7.72989C11.4817 7.72989 10.2239 8.31888 9.55505 9.68654C8.79635 11.2539 9.45522 12.4818 9.74472 12.8911C9.74472 12.8911 10.6432 14.2188 11.4019 15.3369L12.6298 17.1038L14.4766 19.919C14.4866 19.939 14.7861 20.3882 15.3052 20.3882C15.7944 20.3882 16.1038 19.949 16.1338 19.8891L20.4564 13.5H18.0305V13.51ZM12.6198 13.6098C12.6198 13.6098 11.901 12.5217 11.4318 11.753C10.9327 10.9344 11.4917 9.70651 12.6198 9.70651C13.7479 9.70651 14.3069 10.9244 13.8078 11.753C13.3486 12.5217 12.6198 13.6098 12.6198 13.6098Z" fill="url(#paint0_radial_1_2442)"/>
        <path d="M9.96435 17.4133L7.25898 13.6098C7.25898 13.6098 6.54021 12.5117 6.07101 11.753C5.57187 10.9344 6.13091 9.70651 7.25898 9.70651C7.39874 9.70651 7.52852 9.72647 7.6583 9.75642L8.61666 8.00941C8.17741 7.81974 7.7182 7.72989 7.27895 7.72989C6.13091 7.72989 4.87306 8.31888 4.20421 9.68654C3.44551 11.2539 4.10438 12.4818 4.39388 12.8911L9.12578 19.8991C9.16572 19.9589 9.4652 20.3982 9.96435 20.3982C10.4735 20.3982 10.763 19.9689 10.7929 19.909L12.2205 17.7328L10.9926 15.9259L9.96435 17.4133Z" fill="url(#paint1_radial_1_2442)"/>
    </g>
    <defs>
        <radialGradient id="paint0_radial_1_2442" cx="0" cy="0" r="1" gradientUnits="userSpaceOnUse" gradientTransform="translate(6.03575 2.60588) scale(26.2881 26.6277)">
            <stop stop-color="#FFCC00"/>
            <stop offset="0.0915684" stop-color="#FFC800"/>
            <stop offset="0.1739" stop-color="#FFBD00"/>
            <stop offset="0.2528" stop-color="#FFAB00"/>
            <stop offset="0.3295" stop-color="#FF9100"/>
            <stop offset="0.4046" stop-color="#FF7000"/>
            <stop offset="0.4786" stop-color="#FF4700"/>
            <stop offset="0.5503" stop-color="#FF1800"/>
            <stop offset="0.5822" stop-color="#FF0000"/>
            <stop offset="1" stop-color="#FF0000"/>
        </radialGradient>
        <radialGradient id="paint1_radial_1_2442" cx="0" cy="0" r="1" gradientUnits="userSpaceOnUse" gradientTransform="translate(4.04728 9.59004) scale(11.6671 11.6671)">
            <stop stop-color="#00B4E6"/>
            <stop offset="0.201" stop-color="#00B0E3"/>
            <stop offset="0.3898" stop-color="#01A5DB"/>
            <stop offset="0.5737" stop-color="#0292CD"/>
            <stop offset="0.7546" stop-color="#0377BA"/>
            <stop offset="0.9316" stop-color="#0455A1"/>
            <stop offset="1" stop-color="#054696"/>
        </radialGradient>
        <clipPath id="clip0_1_2442">
            <rect width="23.36" height="26.6544" fill="white" transform="translate(0.820007 0.172821)"/>
        </clipPath>
    </defs>
</svg>
