<svg viewBox="0 0 30 17" fill="none" xmlns="http://www.w3.org/2000/svg">
<path fill-rule="evenodd" clip-rule="evenodd" d="M28 1H2C1.44772 1 1 1.44772 1 2V15C1 15.5523 1.44772 16 2 16H28C28.5523 16 29 15.5523 29 15V2C29 1.44772 28.5523 1 28 1ZM2 0C0.895431 0 0 0.89543 0 2V15C0 16.1046 0.89543 17 2 17H28C29.1046 17 30 16.1046 30 15V2C30 0.895431 29.1046 0 28 0H2Z" fill="#262626"/>
<path fill-rule="evenodd" clip-rule="evenodd" d="M8.5 9C9.88071 9 11 7.88071 11 6.5C11 5.11929 9.88071 4 8.5 4C7.11929 4 6 5.11929 6 6.5C6 7.88071 7.11929 9 8.5 9ZM12 6.5C12 8.433 10.433 10 8.5 10C6.567 10 5 8.433 5 6.5C5 4.567 6.567 3 8.5 3C10.433 3 12 4.567 12 6.5Z" fill="#262626"/>
<path fill-rule="evenodd" clip-rule="evenodd" d="M8.5 10.5C5.9571 10.5 4 12.345 4 14.5C4 14.7761 3.77614 15 3.5 15C3.22386 15 3 14.7761 3 14.5C3 11.6981 5.50444 9.5 8.5 9.5C11.4945 9.5 14 11.6833 14 14.5C14 14.7761 13.7761 15 13.5 15C13.2239 15 13 14.7761 13 14.5C13 12.3321 11.0439 10.5 8.5 10.5Z" fill="#262626"/>
<path fill-rule="evenodd" clip-rule="evenodd" d="M18 5.5C18 5.22386 18.2239 5 18.5 5H25.5C25.7761 5 26 5.22386 26 5.5C26 5.77614 25.7761 6 25.5 6H18.5C18.2239 6 18 5.77614 18 5.5Z" fill="#262626"/>
<path fill-rule="evenodd" clip-rule="evenodd" d="M18 8.5C18 8.22386 18.2239 8 18.5 8H25.5C25.7761 8 26 8.22386 26 8.5C26 8.77614 25.7761 9 25.5 9H18.5C18.2239 9 18 8.77614 18 8.5Z" fill="#262626"/>
<path fill-rule="evenodd" clip-rule="evenodd" d="M18 11.5C18 11.2239 18.2239 11 18.5 11H25.5C25.7761 11 26 11.2239 26 11.5C26 11.7761 25.7761 12 25.5 12H18.5C18.2239 12 18 11.7761 18 11.5Z" fill="#262626"/>
</svg>
